<svg width="128" height="31" viewBox="0 0 128 31" fill="none" xmlns="http://www.w3.org/2000/svg">
<path d="M28.9805 15.6877C28.9805 14.6596 28.8883 13.6709 28.7169 12.7218H15.0605V18.3373H22.8642C22.5215 20.1432 21.4933 21.6723 19.951 22.7005V26.3518H24.6569C27.3987 23.8209 28.9805 20.1037 28.9805 15.6877Z" fill="#4285F4"/>
<path d="M15.0598 29.8585C18.9748 29.8585 22.257 28.5667 24.6561 26.3522L19.9502 22.7008C18.6584 23.5708 17.0107 24.0981 15.0598 24.0981C11.2898 24.0981 8.0866 21.554 6.93978 18.1267H2.11523V21.8703C4.50114 26.6026 9.3916 29.8585 15.0598 29.8585Z" fill="#34A853"/>
<path d="M6.94055 18.1127C6.65055 17.2427 6.47918 16.32 6.47918 15.3577C6.47918 14.3955 6.65055 13.4727 6.94055 12.6027V8.8591H2.116C1.12737 10.81 0.560547 13.0114 0.560547 15.3577C0.560547 17.7041 1.12737 19.9055 2.116 21.8564L5.87282 18.93L6.94055 18.1127Z" fill="#FBBC05"/>
<path d="M15.0598 6.63182C17.1952 6.63182 19.0934 7.37 20.6093 8.79364L24.7616 4.64137C22.2439 2.295 18.9748 0.858185 15.0598 0.858185C9.3916 0.858185 4.50114 4.11409 2.11523 8.85955L6.93978 12.6032C8.0866 9.17591 11.2898 6.63182 15.0598 6.63182Z" fill="#EA4335"/>
<path d="M41.7458 2.15723C41.9028 1.84135 42.3534 1.84135 42.5104 2.15723L43.7922 4.73706C43.8543 4.86215 43.9737 4.94892 44.1119 4.96937L46.9616 5.39122C47.3105 5.44287 47.4497 5.87144 47.1978 6.11832L45.1403 8.13459C45.0406 8.23235 44.995 8.37274 45.0182 8.51048L45.4976 11.351C45.5563 11.6988 45.1917 11.9637 44.8791 11.8004L42.3257 10.4667C42.2019 10.402 42.0543 10.402 41.9305 10.4667L39.3771 11.8004C39.0645 11.9637 38.6999 11.6988 38.7586 11.351L39.238 8.51048C39.2612 8.37274 39.2156 8.23235 39.1159 8.13459L37.0584 6.11832C36.8065 5.87144 36.9457 5.44287 37.2946 5.39122L40.1443 4.96937C40.2825 4.94892 40.4019 4.86215 40.464 4.73706L41.7458 2.15723Z" fill="#F8B407"/>
<path d="M53.697 2.15723C53.854 1.84135 54.3046 1.84135 54.4615 2.15723L55.7433 4.73706C55.8055 4.86215 55.9249 4.94892 56.0631 4.96937L58.9127 5.39122C59.2617 5.44287 59.4009 5.87144 59.149 6.11832L57.0915 8.13459C56.9918 8.23235 56.9461 8.37274 56.9694 8.51048L57.4488 11.351C57.5075 11.6988 57.1429 11.9637 56.8303 11.8004L54.2769 10.4667C54.1531 10.402 54.0055 10.402 53.8817 10.4667L51.3283 11.8004C51.0156 11.9637 50.6511 11.6988 50.7098 11.351L51.1892 8.51048C51.2124 8.37274 51.1668 8.23235 51.067 8.13459L49.0096 6.11832C48.7576 5.87144 48.8969 5.44287 49.2458 5.39122L52.0955 4.96937C52.2336 4.94892 52.3531 4.86215 52.4152 4.73706L53.697 2.15723Z" fill="#F8B407"/>
<path d="M65.6482 2.15723C65.8051 1.84135 66.2558 1.84135 66.4127 2.15723L67.6945 4.73706C67.7566 4.86215 67.8761 4.94892 68.0142 4.96937L70.8639 5.39122C71.2128 5.44287 71.3521 5.87144 71.1002 6.11832L69.0427 8.13459C68.9429 8.23235 68.8973 8.37274 68.9206 8.51048L69.3999 11.351C69.4586 11.6988 69.0941 11.9637 68.7814 11.8004L66.2281 10.4667C66.1043 10.402 65.9566 10.402 65.8328 10.4667L63.2795 11.8004C62.9668 11.9637 62.6022 11.6988 62.6609 11.351L63.1403 8.51048C63.1636 8.37274 63.118 8.23235 63.0182 8.13459L60.9607 6.11832C60.7088 5.87144 60.8481 5.44287 61.197 5.39122L64.0466 4.96937C64.1848 4.94892 64.3042 4.86215 64.3664 4.73706L65.6482 2.15723Z" fill="#F8B407"/>
<path d="M77.6013 2.15723C77.7583 1.84135 78.2089 1.84135 78.3658 2.15723L79.6476 4.73706C79.7098 4.86215 79.8292 4.94892 79.9674 4.96937L82.817 5.39122C83.166 5.44287 83.3052 5.87144 83.0533 6.11832L80.9958 8.13459C80.8961 8.23235 80.8504 8.37274 80.8737 8.51048L81.3531 11.351C81.4118 11.6988 81.0472 11.9637 80.7346 11.8004L78.1812 10.4667C78.0574 10.402 77.9098 10.402 77.786 10.4667L75.2326 11.8004C74.9199 11.9637 74.5554 11.6988 74.6141 11.351L75.0935 8.51048C75.1167 8.37274 75.0711 8.23235 74.9713 8.13459L72.9139 6.11832C72.6619 5.87144 72.8012 5.44287 73.1501 5.39122L75.9998 4.96937C76.1379 4.94892 76.2574 4.86215 76.3195 4.73706L77.6013 2.15723Z" fill="#F8B407"/>
<path d="M89.5525 2.15723C89.7094 1.84135 90.1601 1.84135 90.317 2.15723L91.5988 4.73706C91.6609 4.86215 91.7804 4.94892 91.9185 4.96937L94.7682 5.39122C95.1171 5.44287 95.2564 5.87144 95.0044 6.11832L92.947 8.13459C92.8472 8.23235 92.8016 8.37274 92.8249 8.51048L93.3042 11.351C93.3629 11.6988 92.9984 11.9637 92.6857 11.8004L90.1324 10.4667C90.0086 10.402 89.8609 10.402 89.7371 10.4667L87.1837 11.8004C86.8711 11.9637 86.5065 11.6988 86.5652 11.351L87.0446 8.51048C87.0679 8.37274 87.0223 8.23235 86.9225 8.13459L84.865 6.11832C84.6131 5.87144 84.7524 5.44287 85.1013 5.39122L87.9509 4.96937C88.0891 4.94892 88.2085 4.86215 88.2707 4.73706L89.5525 2.15723Z" fill="#F8B407"/>
<path d="M41.6459 27.7598C40.9897 27.7598 40.3828 27.6408 39.825 27.403C39.2673 27.1651 38.7793 26.8329 38.361 26.4064C37.9427 25.9799 37.6146 25.4796 37.3767 24.9055C37.1471 24.3313 37.0322 23.7039 37.0322 23.0231C37.0322 22.3423 37.143 21.7149 37.3644 21.1407C37.5941 20.5584 37.914 20.0581 38.3241 19.6398C38.7424 19.2133 39.2304 18.8852 39.7881 18.6555C40.3459 18.4177 40.9528 18.2987 41.609 18.2987C42.2651 18.2987 42.8516 18.4095 43.3683 18.6309C43.8932 18.8524 44.3361 19.1476 44.697 19.5167C45.0579 19.8776 45.3163 20.2754 45.4721 20.7101L43.9834 21.4237C43.8112 20.948 43.52 20.5625 43.1099 20.2672C42.6998 19.9719 42.1995 19.8243 41.609 19.8243C41.0348 19.8243 40.5263 19.9596 40.0834 20.2303C39.6487 20.501 39.3083 20.8742 39.0622 21.3499C38.8244 21.8256 38.7054 22.3833 38.7054 23.0231C38.7054 23.6628 38.8285 24.2247 39.0745 24.7086C39.3288 25.1843 39.6774 25.5575 40.1203 25.8282C40.5632 26.0988 41.0717 26.2342 41.6459 26.2342C42.1134 26.2342 42.544 26.144 42.9377 25.9635C43.3314 25.7749 43.6472 25.5124 43.885 25.1761C44.1229 24.8316 44.2418 24.4256 44.2418 23.9581V23.2568L45.0046 23.9212H41.609V22.5064H45.915V23.4291C45.915 24.1345 45.7961 24.7578 45.5582 25.2992C45.3204 25.8405 44.9964 26.2957 44.5863 26.6648C44.1844 27.0257 43.7292 27.3004 43.2207 27.4891C42.7121 27.6695 42.1872 27.7598 41.6459 27.7598ZM50.3763 27.7598C49.7202 27.7598 49.1214 27.608 48.5801 27.3045C48.0469 27.0011 47.6204 26.5869 47.3006 26.0619C46.9889 25.537 46.833 24.9383 46.833 24.2657C46.833 23.5931 46.9889 22.9944 47.3006 22.4695C47.6204 21.9445 48.0469 21.5303 48.5801 21.2268C49.1132 20.9234 49.7119 20.7716 50.3763 20.7716C51.0325 20.7716 51.6271 20.9234 52.1603 21.2268C52.6934 21.5303 53.1158 21.9445 53.4275 22.4695C53.7473 22.9862 53.9073 23.5849 53.9073 24.2657C53.9073 24.9383 53.7473 25.537 53.4275 26.0619C53.1076 26.5869 52.6811 27.0011 52.1479 27.3045C51.6148 27.608 51.0243 27.7598 50.3763 27.7598ZM50.3763 26.2834C50.7372 26.2834 51.053 26.1973 51.3236 26.025C51.6025 25.8528 51.8199 25.6149 51.9757 25.3115C52.1397 24.9998 52.2218 24.6512 52.2218 24.2657C52.2218 23.872 52.1397 23.5275 51.9757 23.2322C51.8199 22.9288 51.6025 22.6909 51.3236 22.5187C51.053 22.3382 50.7372 22.248 50.3763 22.248C50.0072 22.248 49.6832 22.3382 49.4044 22.5187C49.1255 22.6909 48.9041 22.9288 48.74 23.2322C48.5842 23.5275 48.5063 23.872 48.5063 24.2657C48.5063 24.6512 48.5842 24.9998 48.74 25.3115C48.9041 25.6149 49.1255 25.8528 49.4044 26.025C49.6832 26.1973 50.0072 26.2834 50.3763 26.2834ZM58.4021 27.7598C57.746 27.7598 57.1472 27.608 56.6059 27.3045C56.0727 27.0011 55.6462 26.5869 55.3264 26.0619C55.0147 25.537 54.8588 24.9383 54.8588 24.2657C54.8588 23.5931 55.0147 22.9944 55.3264 22.4695C55.6462 21.9445 56.0727 21.5303 56.6059 21.2268C57.139 20.9234 57.7378 20.7716 58.4021 20.7716C59.0583 20.7716 59.6529 20.9234 60.1861 21.2268C60.7192 21.5303 61.1416 21.9445 61.4533 22.4695C61.7731 22.9862 61.9331 23.5849 61.9331 24.2657C61.9331 24.9383 61.7731 25.537 61.4533 26.0619C61.1334 26.5869 60.7069 27.0011 60.1738 27.3045C59.6406 27.608 59.0501 27.7598 58.4021 27.7598ZM58.4021 26.2834C58.763 26.2834 59.0788 26.1973 59.3495 26.025C59.6283 25.8528 59.8457 25.6149 60.0015 25.3115C60.1656 24.9998 60.2476 24.6512 60.2476 24.2657C60.2476 23.872 60.1656 23.5275 60.0015 23.2322C59.8457 22.9288 59.6283 22.6909 59.3495 22.5187C59.0788 22.3382 58.763 22.248 58.4021 22.248C58.033 22.248 57.709 22.3382 57.4302 22.5187C57.1513 22.6909 56.9299 22.9288 56.7658 23.2322C56.61 23.5275 56.5321 23.872 56.5321 24.2657C56.5321 24.6512 56.61 24.9998 56.7658 25.3115C56.9299 25.6149 57.1513 25.8528 57.4302 26.025C57.709 26.1973 58.033 26.2834 58.4021 26.2834ZM66.4033 30.3188C65.903 30.3188 65.4396 30.2368 65.0131 30.0727C64.5866 29.9087 64.2175 29.679 63.9058 29.3838C63.6023 29.0967 63.3809 28.7563 63.2414 28.3626L64.7424 27.7967C64.8408 28.1083 65.0336 28.3585 65.3206 28.5472C65.6159 28.744 65.9768 28.8424 66.4033 28.8424C66.7314 28.8424 67.0185 28.7809 67.2645 28.6579C67.5188 28.5348 67.7156 28.3544 67.8551 28.1165C67.9945 27.8869 68.0642 27.608 68.0642 27.2799V25.7544L68.3718 26.1235C68.1421 26.5254 67.8346 26.8288 67.4491 27.0339C67.0636 27.2389 66.6248 27.3415 66.1326 27.3415C65.5093 27.3415 64.9516 27.1979 64.4594 26.9108C63.9673 26.6238 63.5818 26.2301 63.303 25.7298C63.0241 25.2294 62.8846 24.6676 62.8846 24.0442C62.8846 23.4127 63.0241 22.8508 63.303 22.3587C63.5818 21.8666 63.9632 21.4811 64.4471 21.2022C64.9311 20.9152 65.4806 20.7716 66.0957 20.7716C66.5961 20.7716 67.0349 20.8783 67.4122 21.0915C67.7977 21.2966 68.1175 21.5959 68.3718 21.9896L68.1503 22.3956V20.9193H69.6759V27.2799C69.6759 27.8623 69.5324 28.3831 69.2453 28.8424C68.9664 29.3017 68.581 29.6626 68.0888 29.9251C67.6049 30.1876 67.0431 30.3188 66.4033 30.3188ZM66.3295 25.8528C66.674 25.8528 66.9734 25.779 67.2276 25.6313C67.4901 25.4755 67.6951 25.2622 67.8428 24.9916C67.9904 24.7209 68.0642 24.4092 68.0642 24.0565C68.0642 23.7121 67.9863 23.4045 67.8305 23.1338C67.6828 22.8549 67.4778 22.6376 67.2153 22.4818C66.9611 22.3259 66.6658 22.248 66.3295 22.248C65.9932 22.248 65.6897 22.3259 65.4191 22.4818C65.1484 22.6376 64.9352 22.8549 64.7793 23.1338C64.6317 23.4045 64.5579 23.7121 64.5579 24.0565C64.5579 24.401 64.6317 24.7086 64.7793 24.9793C64.9352 25.2499 65.1443 25.4632 65.4068 25.619C65.6774 25.7749 65.985 25.8528 66.3295 25.8528ZM71.1811 27.6121V18.2987H72.7928V27.6121H71.1811ZM77.4551 27.7598C76.7661 27.7598 76.1633 27.6039 75.6465 27.2922C75.1298 26.9806 74.7279 26.5582 74.4408 26.025C74.1538 25.4919 74.0102 24.9014 74.0102 24.2534C74.0102 23.5808 74.1538 22.9862 74.4408 22.4695C74.7361 21.9445 75.1339 21.5303 75.6342 21.2268C76.1428 20.9234 76.7087 20.7716 77.3321 20.7716C77.857 20.7716 78.3163 20.8578 78.71 21.03C79.1119 21.2022 79.4523 21.4401 79.7311 21.7436C80.01 22.0471 80.2233 22.3956 80.3709 22.7893C80.5185 23.1748 80.5924 23.5931 80.5924 24.0442C80.5924 24.1591 80.5842 24.278 80.5678 24.401C80.5596 24.5241 80.539 24.6307 80.5062 24.7209H75.339V23.4906H79.5958L78.833 24.0688C78.9068 23.6916 78.8863 23.3553 78.7715 23.06C78.6649 22.7647 78.4844 22.531 78.2302 22.3587C77.9841 22.1865 77.6847 22.1004 77.3321 22.1004C76.9958 22.1004 76.6964 22.1865 76.4339 22.3587C76.1715 22.5228 75.9705 22.7688 75.8311 23.0969C75.6999 23.4168 75.6506 23.8064 75.6835 24.2657C75.6506 24.6758 75.704 25.0408 75.8434 25.3607C75.991 25.6723 76.2043 25.9143 76.4831 26.0865C76.7702 26.2588 77.0983 26.3449 77.4674 26.3449C77.8365 26.3449 78.1482 26.267 78.4024 26.1112C78.6649 25.9553 78.8699 25.7462 79.0176 25.4837L80.3217 26.1235C80.1905 26.4433 79.9854 26.7263 79.7065 26.9724C79.4277 27.2184 79.0955 27.4112 78.71 27.5506C78.3327 27.69 77.9144 27.7598 77.4551 27.7598ZM84.1361 27.6121V18.4464H87.5441C88.1674 18.4464 88.7169 18.5612 89.1927 18.7908C89.6766 19.0123 90.0539 19.3404 90.3245 19.7751C90.5952 20.2016 90.7305 20.7224 90.7305 21.3376C90.7305 21.9691 90.5788 22.5064 90.2753 22.9493C89.9801 23.3922 89.5782 23.7203 89.0696 23.9335L91.1734 27.6121H89.2788L87.0273 23.589L88.11 24.2288H85.8093V27.6121H84.1361ZM85.8093 22.7524H87.5687C87.8721 22.7524 88.1346 22.695 88.3561 22.5802C88.5775 22.4572 88.7498 22.289 88.8728 22.0758C88.9958 21.8625 89.0573 21.6164 89.0573 21.3376C89.0573 21.0505 88.9958 20.8044 88.8728 20.5994C88.7498 20.3861 88.5775 20.2221 88.3561 20.1073C88.1346 19.9842 87.8721 19.9227 87.5687 19.9227H85.8093V22.7524ZM94.9364 27.7598C94.2475 27.7598 93.6446 27.6039 93.1279 27.2922C92.6112 26.9806 92.2093 26.5582 91.9222 26.025C91.6351 25.4919 91.4916 24.9014 91.4916 24.2534C91.4916 23.5808 91.6351 22.9862 91.9222 22.4695C92.2175 21.9445 92.6153 21.5303 93.1156 21.2268C93.6241 20.9234 94.1901 20.7716 94.8134 20.7716C95.3383 20.7716 95.7977 20.8578 96.1914 21.03C96.5933 21.2022 96.9336 21.4401 97.2125 21.7436C97.4914 22.0471 97.7046 22.3956 97.8523 22.7893C97.9999 23.1748 98.0737 23.5931 98.0737 24.0442C98.0737 24.1591 98.0655 24.278 98.0491 24.401C98.0409 24.5241 98.0204 24.6307 97.9876 24.7209H92.8203V23.4906H97.0772L96.3144 24.0688C96.3882 23.6916 96.3677 23.3553 96.2529 23.06C96.1462 22.7647 95.9658 22.531 95.7115 22.3587C95.4655 22.1865 95.1661 22.1004 94.8134 22.1004C94.4771 22.1004 94.1778 22.1865 93.9153 22.3587C93.6528 22.5228 93.4519 22.7688 93.3124 23.0969C93.1812 23.4168 93.132 23.8064 93.1648 24.2657C93.132 24.6758 93.1853 25.0408 93.3247 25.3607C93.4724 25.6723 93.6856 25.9143 93.9645 26.0865C94.2516 26.2588 94.5797 26.3449 94.9487 26.3449C95.3178 26.3449 95.6295 26.267 95.8838 26.1112C96.1462 25.9553 96.3513 25.7462 96.4989 25.4837L97.8031 26.1235C97.6718 26.4433 97.4668 26.7263 97.1879 26.9724C96.909 27.2184 96.5769 27.4112 96.1914 27.5506C95.8141 27.69 95.3958 27.7598 94.9364 27.7598ZM101.193 27.6121L98.5602 20.9193H100.32L102.226 26.185H101.574L103.494 20.9193H105.253L102.62 27.6121H101.193ZM106.144 27.6121V20.9193H107.756V27.6121H106.144ZM106.144 20.1688V18.4464H107.756V20.1688H106.144ZM112.418 27.7598C111.729 27.7598 111.126 27.6039 110.609 27.2922C110.093 26.9806 109.691 26.5582 109.404 26.025C109.116 25.4919 108.973 24.9014 108.973 24.2534C108.973 23.5808 109.116 22.9862 109.404 22.4695C109.699 21.9445 110.097 21.5303 110.597 21.2268C111.105 20.9234 111.671 20.7716 112.295 20.7716C112.82 20.7716 113.279 20.8578 113.673 21.03C114.075 21.2022 114.415 21.4401 114.694 21.7436C114.973 22.0471 115.186 22.3956 115.334 22.7893C115.481 23.1748 115.555 23.5931 115.555 24.0442C115.555 24.1591 115.547 24.278 115.53 24.401C115.522 24.5241 115.502 24.6307 115.469 24.7209H110.302V23.4906H114.559L113.796 24.0688C113.87 23.6916 113.849 23.3553 113.734 23.06C113.628 22.7647 113.447 22.531 113.193 22.3587C112.947 22.1865 112.647 22.1004 112.295 22.1004C111.958 22.1004 111.659 22.1865 111.397 22.3587C111.134 22.5228 110.933 22.7688 110.794 23.0969C110.663 23.4168 110.613 23.8064 110.646 24.2657C110.613 24.6758 110.667 25.0408 110.806 25.3607C110.954 25.6723 111.167 25.9143 111.446 26.0865C111.733 26.2588 112.061 26.3449 112.43 26.3449C112.799 26.3449 113.111 26.267 113.365 26.1112C113.628 25.9553 113.833 25.7462 113.98 25.4837L115.284 26.1235C115.153 26.4433 114.948 26.7263 114.669 26.9724C114.39 27.2184 114.058 27.4112 113.673 27.5506C113.295 27.69 112.877 27.7598 112.418 27.7598ZM118.462 27.6121L116.162 20.9193H117.859L119.545 26.0004L118.954 25.9881L120.751 20.9193H122.178L123.962 25.9881L123.371 26.0004L125.057 20.9193H126.755L124.454 27.6121H123.014L121.194 22.3095H121.735L119.889 27.6121H118.462Z" fill="#111111"/>
</svg>
