<?xml version="1.0" encoding="UTF-8" standalone="no" ?>
<svg xmlns="http://www.w3.org/2000/svg" version="1.1" width="1080" height="1080" viewBox="0 0 1080 1080" xml:space="preserve">
<rect x="0" y="0" width="100%" height="100%" fill="transparent"></rect>
<g transform="matrix(1 0 0 1 540 540)" id="4099928a-9cf8-4e3e-b7b5-2b449414ca0e"  >
<rect style="stroke: none; stroke-width: 1; stroke-dasharray: none; stroke-linecap: butt; stroke-dashoffset: 0; stroke-linejoin: miter; stroke-miterlimit: 4; fill: rgb(255,255,255); fill-rule: nonzero; opacity: 1; visibility: hidden;" vector-effect="non-scaling-stroke"  x="-540" y="-540" rx="0" ry="0" width="1080" height="1080" />
</g>
<g transform="matrix(1 0 0 1 540 540)" id="d3eed168-8f70-4d5f-8c42-b321cdc54ec7"  >
</g>
<g transform="matrix(46.96 0 0 46.96 540 540)"  >
<path style="stroke: none; stroke-width: 1; stroke-dasharray: none; stroke-linecap: butt; stroke-dashoffset: 0; stroke-linejoin: miter; stroke-miterlimit: 4; fill: rgb(17,17,17); fill-rule: nonzero; opacity: 1;"  transform=" translate(-11.61, -11.84)" d="M 7.31055 8.06235 L 7.31055 3.93735 C 7.31055 3.80059 7.36487 3.66944 7.46157 3.57274 C 7.55827 3.47605 7.68942 3.42172 7.82617 3.42172 C 7.96292 3.42172 8.09408 3.47605 8.19077 3.57274 C 8.28747 3.66944 8.3418 3.80059 8.3418 3.93735 L 8.3418 8.06235 C 8.3418 8.1991 8.28747 8.33025 8.19077 8.42695 C 8.09408 8.52365 7.96292 8.57797 7.82617 8.57797 C 7.68942 8.57797 7.55827 8.52365 7.46157 8.42695 C 7.36487 8.33025 7.31055 8.1991 7.31055 8.06235 Z M 19.3418 3.93735 L 19.3418 19.7498 C 19.3418 19.8866 19.2875 20.0177 19.1908 20.1144 C 19.0941 20.2111 18.9629 20.2655 18.8262 20.2655 C 18.6894 20.2655 18.5583 20.2111 18.4616 20.1144 C 18.3649 20.0177 18.3105 19.8866 18.3105 19.7498 L 18.3105 15.453 L 14.0137 15.453 C 13.8769 15.453 13.7458 15.3986 13.6491 15.3019 C 13.5524 15.2052 13.498 15.0741 13.498 14.9373 C 13.498 14.5584 13.5565 5.63461 18.6234 3.46383 C 18.7017 3.4303 18.7872 3.41672 18.8721 3.42432 C 18.957 3.43192 19.0387 3.46045 19.1099 3.50737 C 19.1811 3.55428 19.2395 3.61812 19.28 3.69316 C 19.3205 3.76819 19.3417 3.85209 19.3418 3.93735 Z M 18.3105 4.79672 C 15.1489 6.88414 14.6307 12.6583 14.5456 14.4217 L 18.3105 14.4217 L 18.3105 4.79672 Z M 11.0849 3.85141 C 11.0736 3.7846 11.0493 3.72067 11.0133 3.66326 C 10.9773 3.60585 10.9304 3.5561 10.8751 3.51684 C 10.8199 3.47758 10.7575 3.44958 10.6915 3.43444 C 10.6254 3.41929 10.557 3.41731 10.4902 3.4286 C 10.4234 3.43988 10.3595 3.46422 10.3021 3.50021 C 10.2447 3.5362 10.1949 3.58315 10.1557 3.63837 C 10.1164 3.69359 10.0884 3.75601 10.0733 3.82205 C 10.0581 3.88809 10.0561 3.95647 10.0674 4.02328 L 10.748 8.1036 C 10.748 8.87853 10.4402 9.62172 9.89225 10.1697 C 9.34429 10.7176 8.6011 11.0255 7.82617 11.0255 C 7.05124 11.0255 6.30805 10.7176 5.76009 10.1697 C 5.21214 9.62172 4.9043 8.87853 4.9043 8.1036 L 5.58492 4.02328 C 5.60771 3.88835 5.57597 3.7499 5.49668 3.63837 C 5.41739 3.52685 5.29704 3.45139 5.16211 3.4286 C 5.02718 3.4058 4.88872 3.43755 4.7772 3.51684 C 4.66567 3.59613 4.59021 3.71648 4.56742 3.85141 L 3.87992 7.97641 C 3.87546 8.00484 3.87316 8.03357 3.87305 8.06235 C 3.87429 9.02106 4.22344 9.94674 4.85565 10.6675 C 5.48786 11.3882 6.36017 11.855 7.31055 11.9811 L 7.31055 19.7498 C 7.31055 19.8866 7.36487 20.0177 7.46157 20.1144 C 7.55827 20.2111 7.68942 20.2655 7.82617 20.2655 C 7.96292 20.2655 8.09408 20.2111 8.19077 20.1144 C 8.28747 20.0177 8.3418 19.8866 8.3418 19.7498 L 8.3418 11.9811 C 9.29218 11.855 10.1645 11.3882 10.7967 10.6675 C 11.4289 9.94674 11.7781 9.02106 11.7793 8.06235 C 11.7792 8.03357 11.7769 8.00484 11.7724 7.97641 L 11.0849 3.85141 Z" stroke-linecap="round" />
</g>
</svg>