<?xml version="1.0" encoding="UTF-8" standalone="no" ?>
<svg xmlns="http://www.w3.org/2000/svg" version="1.1" width="1080" height="1080" viewBox="0 0 1080 1080" xml:space="preserve">
<rect x="0" y="0" width="100%" height="100%" fill="transparent"></rect>
<g transform="matrix(1 0 0 1 540 540)" id="4099928a-9cf8-4e3e-b7b5-2b449414ca0e"  >
<rect style="stroke: none; stroke-width: 1; stroke-dasharray: none; stroke-linecap: butt; stroke-dashoffset: 0; stroke-linejoin: miter; stroke-miterlimit: 4; fill: rgb(255,255,255); fill-rule: nonzero; opacity: 1; visibility: hidden;" vector-effect="non-scaling-stroke"  x="-540" y="-540" rx="0" ry="0" width="1080" height="1080" />
</g>
<g transform="matrix(1 0 0 1 540 540)" id="d3eed168-8f70-4d5f-8c42-b321cdc54ec7"  >
</g>
<g transform="matrix(46.96 0 0 46.96 540 540)"  >
<path style="stroke: none; stroke-width: 1; stroke-dasharray: none; stroke-linecap: butt; stroke-dashoffset: 0; stroke-linejoin: miter; stroke-miterlimit: 4; fill: rgb(17,17,17); fill-rule: nonzero; opacity: 1;"  transform=" translate(-11.75, -11.5)" d="M 17.7021 6.035 C 17.6639 6.01777 17.6333 5.98722 17.6161 5.94906 C 17.132 4.79262 16.3169 3.80507 15.2731 3.11052 C 14.2294 2.41597 13.0037 2.04541 11.75 2.04541 C 10.4963 2.04541 9.27061 2.41597 8.2269 3.11052 C 7.18319 3.80507 6.36805 4.79262 5.88393 5.94906 C 5.8667 5.98722 5.83615 6.01777 5.79799 6.035 C 4.75727 6.51672 3.87528 7.28491 3.25525 8.24965 C 2.63522 9.2144 2.3028 10.3358 2.2969 11.4826 C 2.2883 14.7259 4.91713 17.4295 8.15783 17.5154 C 9.23278 17.5453 10.2958 17.284 11.2344 16.7591 L 11.2344 20.4373 C 11.2344 20.574 11.2887 20.7052 11.3854 20.8019 C 11.4821 20.8986 11.6133 20.9529 11.75 20.9529 C 11.8868 20.9529 12.0179 20.8986 12.1146 20.8019 C 12.2113 20.7052 12.2656 20.574 12.2656 20.4373 L 12.2656 16.7574 C 13.1587 17.2559 14.1647 17.5169 15.1875 17.5154 L 15.3431 17.5154 C 18.5829 17.4295 21.2117 14.7276 21.2031 11.4843 C 21.1974 10.3373 20.865 9.21559 20.245 8.25055 C 19.625 7.28551 18.7429 6.51702 17.7021 6.035 Z M 15.3164 16.4841 C 14.2878 16.513 13.2758 16.2204 12.4212 15.6471 C 12.3714 15.6149 12.3194 15.5861 12.2656 15.5612 L 12.2656 11.8229 L 16.1053 9.90304 C 16.2277 9.84196 16.3208 9.73476 16.3642 9.60502 C 16.4075 9.47529 16.3976 9.33364 16.3365 9.21125 C 16.2754 9.08885 16.1682 8.99574 16.0385 8.95239 C 15.9087 8.90903 15.7671 8.91899 15.6447 8.98008 L 12.2656 10.6653 L 12.2656 8.06226 C 12.2656 7.92551 12.2113 7.79436 12.1146 7.69766 C 12.0179 7.60096 11.8868 7.54664 11.75 7.54664 C 11.6133 7.54664 11.4821 7.60096 11.3854 7.69766 C 11.2887 7.79436 11.2344 7.92551 11.2344 8.06226 L 11.2344 12.7278 L 7.85533 11.0383 C 7.73294 10.9772 7.5913 10.9672 7.46156 11.0106 C 7.33182 11.0539 7.22462 11.1471 7.16354 11.2695 C 7.10245 11.3918 7.09249 11.5335 7.13585 11.6632 C 7.1792 11.793 7.27232 11.9002 7.39471 11.9612 L 11.2344 13.8811 L 11.2344 15.5569 C 11.1806 15.5819 11.1286 15.6106 11.0788 15.6428 C 10.225 16.218 9.21277 16.5121 8.18361 16.4841 C 7.05776 16.4557 5.97471 16.0469 5.11094 15.3242 C 4.24718 14.6015 3.65362 13.6076 3.42699 12.5044 C 3.20035 11.4012 3.354 10.2538 3.86289 9.24911 C 4.37179 8.24442 5.20593 7.44169 6.2294 6.97172 C 6.50286 6.84553 6.71905 6.62136 6.83526 6.34351 C 7.24089 5.37464 7.92385 4.54728 8.79829 3.96539 C 9.67274 3.3835 10.6997 3.07305 11.75 3.07305 C 12.8004 3.07305 13.8273 3.3835 14.7018 3.96539 C 15.5762 4.54728 16.2591 5.37464 16.6648 6.34351 C 16.7813 6.62072 16.9975 6.84422 17.2706 6.97 C 18.2951 7.43944 19.1302 8.24215 19.6398 9.2472 C 20.1494 10.2522 20.3034 11.4003 20.0766 12.5041 C 19.8499 13.6079 19.2559 14.6024 18.3914 15.3252 C 17.5269 16.048 16.4429 16.4565 15.3164 16.4841 Z" stroke-linecap="round" />
</g>
</svg>