<?xml version="1.0" encoding="UTF-8" standalone="no" ?>
<svg xmlns="http://www.w3.org/2000/svg" version="1.1" width="1080" height="1080" viewBox="0 0 1080 1080" xml:space="preserve">
<rect x="0" y="0" width="100%" height="100%" fill="transparent"></rect>
<g transform="matrix(1 0 0 1 540 540)" id="4099928a-9cf8-4e3e-b7b5-2b449414ca0e"  >
<rect style="stroke: none; stroke-width: 1; stroke-dasharray: none; stroke-linecap: butt; stroke-dashoffset: 0; stroke-linejoin: miter; stroke-miterlimit: 4; fill: rgb(255,255,255); fill-rule: nonzero; opacity: 1; visibility: hidden;" vector-effect="non-scaling-stroke"  x="-540" y="-540" rx="0" ry="0" width="1080" height="1080" />
</g>
<g transform="matrix(1 0 0 1 540 540)" id="d3eed168-8f70-4d5f-8c42-b321cdc54ec7"  >
</g>
<g transform="matrix(46.96 0 0 46.96 540 540)"  >
<path style="stroke: none; stroke-width: 1; stroke-dasharray: none; stroke-linecap: butt; stroke-dashoffset: 0; stroke-linejoin: miter; stroke-miterlimit: 4; fill: rgb(17,17,17); fill-rule: nonzero; opacity: 1;"  transform=" translate(-11.65, -11.5)" d="M 18.5254 6.85938 L 2.54102 6.85938 L 2.54102 4.625 C 2.54102 4.48825 2.48669 4.3571 2.38999 4.2604 C 2.29329 4.1637 2.16214 4.10938 2.02539 4.10938 C 1.88864 4.10938 1.75749 4.1637 1.66079 4.2604 C 1.56409 4.3571 1.50977 4.48825 1.50977 4.625 L 1.50977 18.375 C 1.50977 18.5118 1.56409 18.6429 1.66079 18.7396 C 1.75749 18.8363 1.88864 18.8906 2.02539 18.8906 C 2.16214 18.8906 2.29329 18.8363 2.38999 18.7396 C 2.48669 18.6429 2.54102 18.5118 2.54102 18.375 L 2.54102 15.4531 L 20.7598 15.4531 L 20.7598 18.375 C 20.7598 18.5118 20.8141 18.6429 20.9108 18.7396 C 21.0075 18.8363 21.1386 18.8906 21.2754 18.8906 C 21.4121 18.8906 21.5433 18.8363 21.64 18.7396 C 21.7367 18.6429 21.791 18.5118 21.791 18.375 L 21.791 10.125 C 21.791 9.2589 21.447 8.42828 20.8345 7.81585 C 20.2221 7.20343 19.3915 6.85938 18.5254 6.85938 Z M 2.54102 7.89062 L 9.07227 7.89062 L 9.07227 14.4219 L 2.54102 14.4219 L 2.54102 7.89062 Z M 10.1035 14.4219 L 10.1035 7.89062 L 18.5254 7.89062 C 19.118 7.89062 19.6863 8.12603 20.1053 8.54506 C 20.5244 8.96409 20.7598 9.53241 20.7598 10.125 L 20.7598 14.4219 L 10.1035 14.4219 Z" stroke-linecap="round" />
</g>
</svg>