<?xml version="1.0" encoding="UTF-8" standalone="no" ?>
<svg xmlns="http://www.w3.org/2000/svg" version="1.1" width="1080" height="1080" viewBox="0 0 1080 1080" xml:space="preserve">
<rect x="0" y="0" width="100%" height="100%" fill="transparent"></rect>
<g transform="matrix(1 0 0 1 540 540)" id="4099928a-9cf8-4e3e-b7b5-2b449414ca0e"  >
<rect style="stroke: none; stroke-width: 1; stroke-dasharray: none; stroke-linecap: butt; stroke-dashoffset: 0; stroke-linejoin: miter; stroke-miterlimit: 4; fill: rgb(255,255,255); fill-rule: nonzero; opacity: 1; visibility: hidden;" vector-effect="non-scaling-stroke"  x="-540" y="-540" rx="0" ry="0" width="1080" height="1080" />
</g>
<g transform="matrix(1 0 0 1 540 540)" id="d3eed168-8f70-4d5f-8c42-b321cdc54ec7"  >
</g>
<g transform="matrix(46.96 0 0 46.96 540 540)"  >
<path style="stroke: none; stroke-width: 1; stroke-dasharray: none; stroke-linecap: butt; stroke-dashoffset: 0; stroke-linejoin: miter; stroke-miterlimit: 4; fill: rgb(17,17,17); fill-rule: nonzero; opacity: 1;"  transform=" translate(-11.85, -11.34)" d="M 21.4746 9.79688 L 20.4348 9.79688 L 18.0019 4.32352 C 17.9073 4.11096 17.7532 3.93037 17.5581 3.80362 C 17.363 3.67687 17.1354 3.6094 16.9027 3.60938 L 6.79648 3.60938 C 6.56384 3.6094 6.3362 3.67687 6.14112 3.80362 C 5.94604 3.93037 5.7919 4.11096 5.69734 4.32352 L 3.26445 9.79688 L 2.22461 9.79688 C 2.08786 9.79688 1.95671 9.8512 1.86001 9.9479 C 1.76331 10.0446 1.70898 10.1757 1.70898 10.3125 C 1.70898 10.4493 1.76331 10.5804 1.86001 10.6771 C 1.95671 10.7738 2.08786 10.8281 2.22461 10.8281 L 3.08398 10.8281 L 3.08398 17.875 C 3.08398 18.1941 3.21074 18.5001 3.43637 18.7257 C 3.662 18.9514 3.96802 19.0781 4.28711 19.0781 L 6.34961 19.0781 C 6.6687 19.0781 6.97472 18.9514 7.20035 18.7257 C 7.42598 18.5001 7.55273 18.1941 7.55273 17.875 L 7.55273 16.3281 L 16.1465 16.3281 L 16.1465 17.875 C 16.1465 18.1941 16.2732 18.5001 16.4989 18.7257 C 16.7245 18.9514 17.0305 19.0781 17.3496 19.0781 L 19.4121 19.0781 C 19.7312 19.0781 20.0372 18.9514 20.2628 18.7257 C 20.4885 18.5001 20.6152 18.1941 20.6152 17.875 L 20.6152 10.8281 L 21.4746 10.8281 C 21.6114 10.8281 21.7425 10.7738 21.8392 10.6771 C 21.9359 10.5804 21.9902 10.4493 21.9902 10.3125 C 21.9902 10.1757 21.9359 10.0446 21.8392 9.9479 C 21.7425 9.8512 21.6114 9.79688 21.4746 9.79688 Z M 6.63922 4.74289 C 6.65271 4.71244 6.67475 4.68657 6.70267 4.66841 C 6.73059 4.65026 6.76318 4.6406 6.79648 4.64062 L 16.9027 4.64062 C 16.936 4.6406 16.9686 4.65026 16.9965 4.66841 C 17.0245 4.68657 17.0465 4.71244 17.06 4.74289 L 19.3064 9.79688 L 4.39281 9.79688 L 6.63922 4.74289 Z M 19.584 17.875 C 19.584 17.9206 19.5659 17.9643 19.5336 17.9965 C 19.5014 18.0288 19.4577 18.0469 19.4121 18.0469 L 17.3496 18.0469 C 17.304 18.0469 17.2603 18.0288 17.2281 17.9965 C 17.1958 17.9643 17.1777 17.9206 17.1777 17.875 L 17.1777 15.8125 C 17.1777 15.6757 17.1234 15.5446 17.0267 15.4479 C 16.93 15.3512 16.7989 15.2969 16.6621 15.2969 L 7.03711 15.2969 C 6.90036 15.2969 6.76921 15.3512 6.67251 15.4479 C 6.57581 15.5446 6.52148 15.6757 6.52148 15.8125 L 6.52148 17.875 C 6.52148 17.9206 6.50338 17.9643 6.47114 17.9965 C 6.43891 18.0288 6.39519 18.0469 6.34961 18.0469 L 4.28711 18.0469 C 4.24153 18.0469 4.19781 18.0288 4.16558 17.9965 C 4.13334 17.9643 4.11523 17.9206 4.11523 17.875 L 4.11523 10.8281 L 19.584 10.8281 L 19.584 17.875 Z" stroke-linecap="round" />
</g>
</svg>